<?xml version="1.0" encoding="utf-8"?>
<!-- Generator: Adobe Illustrator 17.0.0, SVG Export Plug-In . SVG Version: 6.00 Build 0)  -->
<!DOCTYPE svg PUBLIC "-//W3C//DTD SVG 1.1//EN" "http://www.w3.org/Graphics/SVG/1.1/DTD/svg11.dtd">
<svg version="1.1" id="Layer_1" xmlns="http://www.w3.org/2000/svg" xmlns:xlink="http://www.w3.org/1999/xlink" x="0px" y="0px"
	 width="50px" height="50px" viewBox="0 0 50 50" enable-background="new 0 0 50 50" xml:space="preserve">
<path opacity="0.8" enable-background="new    " d="M0,25h4.551C4.551,13.706,13.706,4.551,25,4.551V0C11.193,0,0,11.193,0,25z">
	<animateTransform
			attributeName="transform"
			type="rotate"
			from="0 25 25"
			to="360 25 25"
			dur="6s" 
			repeatDur="indefinite"
		/>
</path>
<path opacity="0.6" enable-background="new    " d="M0,25h4.551C4.551,13.706,13.706,4.551,25,4.551V0C11.193,0,0,11.193,0,25z">
	<animateTransform
			attributeName="transform"
			type="rotate"
			from="0 25 25"
			to="360 25 25"
			dur="4.34s" 
			repeatDur="indefinite"
		/>
</path>
<path opacity="0.4" enable-background="new    " d="M0,25h4.551C4.551,13.706,13.706,4.551,25,4.551V0C11.193,0,0,11.193,0,25z">
	<animateTransform
			attributeName="transform"
			type="rotate"
			from="0 25 25"
			to="360 25 25"
			dur="2.67s" 
			repeatDur="indefinite"
		/>
</path>
<path opacity="0.2" enable-background="new    " d="M0,25h4.551C4.551,13.706,13.706,4.551,25,4.551V0C11.193,0,0,11.193,0,25z">
	<animateTransform
			attributeName="transform"
			type="rotate"
			from="0 25 25"
			to="360 25 25"
			dur="1s" 
			repeatDur="indefinite"
		/>
</path>
</svg>
