<?xml version="1.0" encoding="utf-8"?>
<!-- Generator: Adobe Illustrator 17.0.0, SVG Export Plug-In . SVG Version: 6.00 Build 0)  -->
<!DOCTYPE svg PUBLIC "-//W3C//DTD SVG 1.1//EN" "http://www.w3.org/Graphics/SVG/1.1/DTD/svg11.dtd">
<svg version="1.1" id="Layer_1" xmlns="http://www.w3.org/2000/svg" xmlns:xlink="http://www.w3.org/1999/xlink" x="0px" y="0px"
	 width="25px" height="25px" viewBox="0 0 25 25" enable-background="new 0 0 25 25" xml:space="preserve">
<path d="M18.24,16.24c1.28-1.7,2.04-3.81,2.04-6.1C20.28,4.54,15.74,0,10.14,0C4.54,0,0,4.54,0,10.14c0,5.6,4.54,10.14,10.14,10.14
	c2.29,0,4.4-0.76,6.1-2.04L23,25l2-2L18.24,16.24z M16.21,14.21c-0.53,0.79-1.21,1.47-2,2c-1.17,0.78-2.56,1.24-4.07,1.24
	c-4.03,0-7.31-3.28-7.31-7.31c0-4.03,3.28-7.31,7.31-7.31c4.03,0,7.31,3.28,7.31,7.31C17.45,11.65,16.99,13.04,16.21,14.21z"/>
</svg>
